<?xml version="1.0" standalone="no"?>
<!DOCTYPE svg PUBLIC "-//W3C//DTD SVG 20010904//EN"
 "http://www.w3.org/TR/2001/REC-SVG-20010904/DTD/svg10.dtd">
<svg version="1.0" xmlns="http://www.w3.org/2000/svg"
 width="1280.000000pt" height="808.000000pt" viewBox="0 0 1280.000000 808.000000"
 preserveAspectRatio="xMidYMid meet">
<g transform="translate(0.000000,808.000000) scale(0.100000,-0.100000)"
fill="#000000" stroke="none">
<path d="M7096 7909 c-225 -82 -417 -149 -427 -149 -21 0 -22 3 -44 134 -8 49
-17 91 -19 94 -3 2 -187 -91 -411 -208 -223 -117 -411 -210 -418 -207 -7 2
-53 66 -102 141 -50 74 -93 136 -96 136 -3 0 -148 -118 -323 -262 -175 -145
-326 -263 -335 -263 -11 0 -29 35 -61 117 -25 64 -48 120 -52 123 -3 3 -166
-143 -362 -325 -196 -181 -360 -330 -365 -330 -5 0 -54 63 -110 140 -56 77
-105 140 -109 140 -4 0 -104 -126 -222 -280 -118 -154 -220 -280 -226 -280 -6
0 -89 38 -185 84 -96 46 -177 81 -180 77 -3 -3 -34 -127 -68 -276 -71 -306
-79 -335 -93 -335 -5 0 -50 35 -100 78 -49 42 -94 77 -100 77 -7 0 -49 -156
-99 -369 -48 -203 -90 -379 -93 -392 -9 -33 -28 -31 -171 15 -66 21 -124 36
-129 33 -5 -3 -6 -52 -2 -111 3 -58 6 -304 7 -546 l1 -440 -27 -105 c-132
-526 -334 -922 -601 -1181 -198 -191 -395 -277 -639 -279 -49 0 -51 1 -92 54
-75 96 -204 179 -322 206 -81 19 -197 8 -263 -25 -61 -30 -139 -102 -173 -160
-33 -56 -85 -183 -85 -209 0 -11 12 -52 27 -91 21 -58 39 -82 97 -140 62 -62
85 -76 174 -114 117 -49 135 -67 228 -215 248 -392 544 -706 915 -973 313
-224 712 -419 1104 -538 248 -76 500 -122 930 -170 264 -30 275 -32 275 -46 0
-6 -31 -44 -68 -84 -182 -195 -188 -370 -16 -435 53 -19 74 -20 712 -20 621 0
661 1 735 20 44 11 105 34 137 51 132 70 250 230 314 427 l18 52 1494 0 c822
0 1494 -3 1494 -6 0 -3 -31 -36 -68 -72 -79 -77 -125 -152 -149 -243 -20 -77
-13 -126 23 -169 51 -60 47 -60 902 -60 840 0 843 0 939 56 119 69 201 228
228 446 7 56 -52 33 500 193 440 128 615 185 870 283 554 211 886 411 964 580
23 50 24 54 7 70 -13 14 -34 17 -104 16 -93 -1 -137 -7 -417 -59 -306 -57
-386 -68 -507 -69 -104 -1 -120 1 -145 20 -43 32 -49 62 -25 117 29 64 55 64
126 -3 29 -27 58 -50 64 -50 5 0 17 19 25 43 133 390 252 725 262 735 10 11
29 10 108 -2 53 -9 104 -16 112 -16 13 0 15 54 15 439 0 296 3 442 10 446 6 4
65 -3 131 -16 66 -12 122 -20 124 -17 3 2 -65 224 -151 492 -85 268 -154 495
-152 504 2 13 44 26 171 56 110 26 167 44 165 52 -2 7 -135 171 -296 365 -161
194 -291 358 -289 363 2 6 65 38 140 71 75 33 137 64 138 69 0 4 -154 154
-343 333 -188 179 -344 333 -346 342 -2 11 35 39 118 89 66 40 120 77 120 81
0 5 -156 115 -347 246 -192 130 -357 245 -367 256 -19 17 -18 20 53 139 40 67
71 123 69 125 -1 2 -217 77 -478 168 -549 191 -510 177 -510 188 0 4 41 51 92
104 60 63 88 99 80 104 -6 4 -103 24 -214 45 -644 122 -773 147 -782 156 -6 6
9 52 37 123 26 62 47 119 47 125 0 9 -125 12 -505 12 -505 0 -505 0 -505 21 0
11 5 63 11 115 6 52 9 97 7 100 -3 2 -151 -30 -329 -71 -561 -131 -589 -137
-602 -132 -7 3 -21 42 -31 88 -24 115 -25 119 -44 118 -9 0 -201 -68 -426
-150z"/>
</g>
</svg>
