<?xml version="1.0" standalone="no"?>
<!DOCTYPE svg PUBLIC "-//W3C//DTD SVG 20010904//EN"
 "http://www.w3.org/TR/2001/REC-SVG-20010904/DTD/svg10.dtd">
<svg version="1.0" xmlns="http://www.w3.org/2000/svg"
 width="1280.000000pt" height="1016.000000pt" viewBox="0 0 1280.000000 1016.000000"
 preserveAspectRatio="xMidYMid meet">
<g transform="translate(0.000000,1016.000000) scale(0.100000,-0.100000)"
fill="#000000" stroke="none">
<path d="M6465 10029 c-80 -23 -155 -130 -155 -221 0 -42 -3 -49 -28 -62 -44
-22 -111 -95 -140 -151 -25 -46 -27 -59 -27 -165 l1 -115 58 -153 c31 -85 55
-160 52 -168 -3 -9 -20 -14 -49 -14 -94 0 -232 -52 -349 -131 -35 -24 -129
-107 -209 -185 -227 -221 -281 -251 -713 -400 -172 -60 -290 -115 -376 -176
-123 -88 -248 -233 -324 -377 l-38 -73 -57 4 c-77 7 -180 -6 -225 -27 -61 -29
-65 -42 -56 -195 16 -249 -20 -637 -79 -860 -74 -281 -177 -485 -364 -728
-192 -249 -345 -360 -454 -330 -93 26 -167 106 -252 275 -65 130 -112 261
-216 603 -156 511 -260 817 -359 1047 -59 139 -182 374 -243 466 -165 247
-351 405 -529 452 -74 19 -249 19 -329 0 -72 -17 -643 -221 -736 -263 -142
-64 -189 -111 -189 -187 0 -93 52 -139 271 -239 108 -50 167 -84 226 -131 243
-195 403 -524 482 -995 37 -220 42 -304 50 -870 9 -597 17 -701 76 -991 163
-800 577 -1492 1090 -1821 100 -65 165 -96 285 -138 l105 -37 26 -81 c76 -231
225 -450 474 -696 193 -190 406 -361 690 -552 97 -65 155 -111 165 -130 9 -17
15 -56 15 -92 0 -62 0 -63 -48 -107 -45 -41 -48 -47 -42 -77 27 -123 143 -228
425 -386 30 -17 111 -53 180 -80 499 -198 1192 -302 2015 -302 811 1 1522 107
2003 299 344 138 611 348 612 481 0 31 -7 40 -47 68 -43 30 -58 78 -44 143 6
28 15 58 20 68 6 10 64 54 130 99 140 96 314 230 456 350 127 108 372 354 453
454 138 171 246 356 293 503 12 39 26 76 32 83 6 7 34 12 74 12 79 0 120 19
205 98 211 195 352 234 672 188 125 -18 248 -21 276 -6 28 15 41 45 56 123 19
98 51 160 128 251 81 96 96 123 98 181 3 58 -21 92 -92 128 -30 15 -59 32 -64
37 -19 19 -31 159 -24 268 8 128 42 265 103 413 62 151 98 219 320 609 270
474 354 651 424 893 46 159 63 268 68 455 14 444 -70 791 -259 1073 -61 91
-155 192 -393 419 -139 133 -165 179 -165 295 0 85 -26 161 -66 197 -34 30
-108 58 -154 58 -94 0 -153 -32 -207 -113 l-28 -41 -230 -2 c-248 -2 -363 -14
-540 -60 -437 -112 -799 -366 -1027 -720 -61 -95 -120 -238 -134 -324 -4 -22
-10 -43 -15 -45 -32 -20 -138 227 -174 407 -27 132 -64 156 -224 143 -169 -13
-151 -18 -191 55 -57 103 -112 180 -186 256 -140 143 -267 213 -589 324 -349
120 -413 158 -634 372 -231 224 -399 318 -568 318 -39 0 -55 4 -59 15 -4 9 12
59 34 113 66 161 82 223 82 326 -1 50 -7 107 -14 128 -20 56 -80 132 -135 169
-47 32 -49 36 -54 90 -12 135 -107 221 -243 218 -27 0 -62 -5 -79 -10z m4815
-2469 c180 -47 397 -175 538 -318 222 -226 342 -502 342 -789 0 -376 -157
-781 -511 -1320 -49 -76 -117 -192 -149 -258 -143 -291 -252 -728 -268 -1075
l-7 -145 -115 3 c-138 4 -203 -12 -349 -89 -52 -27 -100 -49 -107 -49 -26 0
-42 45 -47 140 -12 190 -90 512 -211 868 -106 309 -161 418 -340 667 -169 235
-191 288 -191 476 0 120 1 128 30 184 23 46 40 64 74 82 40 21 57 23 183 23
l138 0 35 33 c68 62 63 169 -15 357 -76 182 -101 277 -101 390 -1 242 127 514
317 672 74 62 217 131 314 153 41 9 80 19 85 21 6 2 69 2 140 0 93 -2 154 -10
215 -26z m-4445 -1256 c372 -69 733 -332 949 -691 56 -93 151 -297 181 -388
116 -353 139 -747 64 -1105 -114 -545 -423 -984 -846 -1203 -336 -173 -731
-185 -1072 -31 -441 201 -780 651 -902 1198 -47 214 -64 521 -39 711 62 464
244 854 530 1135 318 312 732 449 1135 374z"/>
</g>
</svg>
