<?xml version="1.0" standalone="no"?>
<!DOCTYPE svg PUBLIC "-//W3C//DTD SVG 20010904//EN"
 "http://www.w3.org/TR/2001/REC-SVG-20010904/DTD/svg10.dtd">
<svg version="1.0" xmlns="http://www.w3.org/2000/svg"
 width="1280.000000pt" height="1099.000000pt" viewBox="0 0 1280.000000 1099.000000"
 preserveAspectRatio="xMidYMid meet">
<g transform="translate(0.000000,1099.000000) scale(0.100000,-0.100000)"
fill="#000000" stroke="none">
<path d="M11769 10985 c-3 -2 -68 -19 -144 -37 -139 -32 -141 -33 -345 -28
-399 8 -540 5 -608 -13 -343 -92 -775 -440 -1089 -875 -120 -166 -188 -323
-259 -599 -29 -111 -37 -163 -41 -265 -3 -71 -8 -128 -12 -128 -4 0 -29 21
-56 46 -58 53 -149 99 -295 147 -259 86 -483 94 -985 37 -93 -11 -276 -29
-405 -40 -337 -29 -548 -60 -945 -140 -985 -199 -1390 -348 -1962 -726 -468
-308 -1040 -726 -1407 -1028 -513 -422 -668 -581 -1158 -1185 -106 -130 -271
-330 -368 -446 -97 -115 -196 -237 -221 -270 -146 -193 -273 -416 -541 -950
-116 -231 -251 -492 -301 -580 -111 -197 -198 -375 -231 -476 -45 -134 -57
-236 -63 -504 l-6 -250 -49 -100 c-28 -55 -79 -148 -115 -208 -35 -59 -82
-146 -104 -195 -22 -48 -44 -95 -49 -104 -25 -45 12 -111 79 -141 63 -28 242
-27 354 2 172 45 376 148 548 278 128 96 571 522 722 694 70 79 129 138 145
143 15 5 162 58 327 118 l300 110 900 2 c844 2 1112 9 1405 36 111 10 130 1
85 -37 -221 -189 -393 -365 -514 -528 -113 -151 -130 -187 -192 -413 -88 -319
-159 -428 -529 -807 -299 -307 -335 -353 -513 -680 -133 -245 -188 -365 -212
-467 -38 -162 4 -305 105 -356 53 -26 89 -25 204 7 320 89 620 245 1105 573
637 433 781 527 951 628 431 254 558 332 760 464 236 154 425 290 685 492 211
164 587 478 760 633 72 64 213 191 315 281 460 409 975 908 1190 1153 58 65
138 143 205 195 261 206 602 576 795 862 162 241 351 655 454 993 15 48 31 87
36 87 5 0 19 -18 29 -39 26 -51 87 -102 215 -179 96 -58 113 -65 211 -82 118
-22 167 -41 188 -74 8 -12 23 -60 32 -107 20 -99 35 -126 80 -145 81 -33 179
-6 317 90 48 33 150 104 225 156 299 207 480 429 577 707 87 252 88 467 4 625
-57 107 -207 222 -357 274 -168 59 -448 54 -726 -11 -277 -66 -283 -67 -388
-59 -53 4 -100 11 -103 16 -10 16 49 102 115 169 91 90 189 148 427 250 356
153 401 182 632 410 244 241 361 391 456 588 56 116 56 116 45 342 -4 79 -2
88 23 126 18 27 62 64 126 107 54 36 116 85 138 108 35 38 39 48 40 98 1 30 5
91 9 136 6 65 3 103 -15 195 -27 143 -61 223 -144 348 -113 169 -275 318 -461
420 -139 77 -381 152 -406 126z"/>
</g>
</svg>
